<?xml version="1.0" encoding="UTF-8"?>
<svg width="149px" height="40px" viewBox="0 0 149 40" version="1.1" xmlns="http://www.w3.org/2000/svg" xmlns:xlink="http://www.w3.org/1999/xlink">
    <!-- Generator: sketchtool 62 (101010) - https://sketch.com -->
    <title>673D6806-FA2E-495D-B6F3-A341151DF8FE@3x</title>
    <desc>Created with sketchtool.</desc>
    <g id="Quizes" stroke="none" stroke-width="1" fill="none" fill-rule="evenodd">
        <g id="Quizes-Horizontal-image-checkbox-selection" transform="translate(-24.000000, -32.000000)" fill="#040201">
            <g id="organism/-navbar-copy">
                <g id="Group-7">
                    <g id="atom/-logo/-bedu/-dark" transform="translate(24.000000, 32.000000)">
                        <g id="logo-bedu-black">
                            <path d="M76.6077628,-0.000148148148 L76.5982209,27.3783704 L76.6092308,39.795037 L97.7921865,39.795037 L105.616521,36.2920741 L108.25595,28.7965185 L108.232095,11.2735556 L105.380544,3.37096296 L97.7162185,-0.000148148148 L76.6077628,-0.000148148148 Z M84.7183539,27.3768889 L84.7234919,8.19466667 L96.0808884,8.19466667 L98.9573958,9.52022222 L100.114164,12.7246667 L100.134349,27.3894815 L99.1188736,30.2728148 L96.0284081,31.6913333 L84.7216569,31.6913333 L84.7183539,27.3768889 Z" id="Fill-1"></path>
                            <path d="M5.98528596,-0.000148148148 L-3.66995074e-05,11.4954074 L-3.66995074e-05,28.2994815 L5.98528596,39.795037 L21.1909929,39.795037 L29.0186308,36.200963 L32.0764337,27.518 L27.435414,19.9572593 L32.0621209,12.3672593 L28.781552,3.27985185 L21.1381456,-0.000148148148 L5.98528596,-0.000148148148 Z M8.1204633,26.278 L8.1204633,13.5172593 L10.8912761,8.19466667 L19.4833648,8.19466667 L22.3598722,9.42874074 L23.0890914,11.4487407 L17.8935421,19.9720741 L23.118451,28.4854074 L22.52135,30.1817037 L19.4305175,31.6002222 L10.8912761,31.6002222 L8.1204633,26.278 Z" id="Fill-2"></path>
                            <polygon id="Fill-3" points="140.865444 -0.000148148148 140.865444 28.9591111 135.591725 31.6002222 129.741456 31.6002222 124.467737 28.9591111 124.467737 -0.000148148148 116.34687 -0.000148148148 116.34687 33.9105926 127.736929 39.795037 137.595151 39.795037 148.985944 33.9105926 148.985944 -0.000148148148"></polygon>
                            <polygon id="Fill-4" points="53.6024197 24.062037 53.6024197 15.8672222 47.1102768 15.8672222 43.7232793 10.2894444 36.8002842 14.5712963 40.0606685 19.9401852 36.7533089 25.4142593 43.6862128 29.6798148 47.0805502 24.062037"></polygon>
                            <polygon id="Fill-5" points="48.2855419 8.19481481 68.5179803 8.19481481 68.5179803 0 48.2855419 0"></polygon>
                            <polygon id="Fill-6" points="48.2855419 39.7951852 68.5179803 39.7951852 68.5179803 31.6003704 48.2855419 31.6003704"></polygon>
                        </g>
                    </g>
                </g>
            </g>
        </g>
    </g>
</svg>